<?xml version="1.0" standalone="no"?>
<!DOCTYPE svg PUBLIC "-//W3C//DTD SVG 20010904//EN"
 "http://www.w3.org/TR/2001/REC-SVG-20010904/DTD/svg10.dtd">
<svg version="1.0" xmlns="http://www.w3.org/2000/svg"
 width="512.000000pt" height="512.000000pt" viewBox="0 0 512.000000 512.000000"
 preserveAspectRatio="xMidYMid meet">
<metadata>
Created by potrace 1.14, written by Peter Selinger 2001-2017
</metadata>
<g transform="translate(0.000000,512.000000) scale(0.100000,-0.100000)"
fill="#000000" stroke="none">
<path d="M1312 5002 c-7 -5 -272 -266 -588 -582 -351 -349 -583 -588 -595
-612 -29 -58 -34 -124 -14 -194 16 -59 19 -61 598 -642 320 -321 591 -587 602
-592 12 -4 30 -2 45 5 33 18 460 448 460 464 0 30 -25 53 -93 84 -84 39 -127
84 -157 165 -33 89 -23 171 32 252 40 59 80 90 142 111 152 49 308 -30 362
-184 16 -46 37 -67 68 -67 13 0 102 82 248 227 183 183 228 233 228 254 0 21
-37 64 -181 207 l-181 181 56 51 c282 258 106 718 -271 712 -129 -2 -261 -73
-329 -177 l-17 -26 -171 174 c-191 194 -211 209 -244 189z"/>
<path d="M3161 3778 c-11 -3 -23 -13 -27 -20 -11 -17 -13 -617 -3 -646 12 -32
50 -37 112 -14 64 24 160 24 219 -1 57 -24 132 -104 151 -162 80 -233 -136
-448 -365 -364 -63 23 -78 23 -104 5 -18 -14 -19 -29 -20 -288 l0 -273 -222
-3 -222 -2 7 27 c5 16 8 65 7 110 -1 74 -5 91 -38 157 -120 243 -421 305 -626
128 -92 -78 -147 -210 -137 -327 3 -33 8 -68 12 -77 7 -17 -9 -18 -253 -18
-239 0 -262 -1 -283 -19 l-23 -18 1 -829 c0 -805 1 -830 20 -874 26 -58 85
-115 143 -138 42 -16 148 -17 1680 -17 1488 0 1638 1 1671 16 51 23 107 75
132 123 l22 41 3 1636 c2 1800 6 1683 -58 1761 -17 20 -56 49 -88 65 l-57 28
-818 0 c-450 0 -826 -3 -836 -7z"/>
</g>
</svg>
